<?xml version="1.0" encoding="UTF-8" standalone="no"?>
<!-- Created with Inkscape (http://www.inkscape.org/) -->

<svg
   width="210mm"
   height="297mm"
   viewBox="0 0 210 297"
   version="1.1"
   id="svg5"
   xml:space="preserve"
   inkscape:version="1.2.2 (732a01da63, 2022-12-09)"
   sodipodi:docname="LOGO_EXAMPLES.svg"
   xmlns:inkscape="http://www.inkscape.org/namespaces/inkscape"
   xmlns:sodipodi="http://sodipodi.sourceforge.net/DTD/sodipodi-0.dtd"
   xmlns="http://www.w3.org/2000/svg"
   xmlns:svg="http://www.w3.org/2000/svg"><sodipodi:namedview
     id="namedview7"
     pagecolor="#505050"
     bordercolor="#eeeeee"
     borderopacity="1"
     inkscape:showpageshadow="0"
     inkscape:pageopacity="0"
     inkscape:pagecheckerboard="0"
     inkscape:deskcolor="#505050"
     inkscape:document-units="mm"
     showgrid="false"
     showguides="true"
     inkscape:zoom="0.73851712"
     inkscape:cx="425.17633"
     inkscape:cy="582.24785"
     inkscape:window-width="1920"
     inkscape:window-height="1009"
     inkscape:window-x="-8"
     inkscape:window-y="156"
     inkscape:window-maximized="1"
     inkscape:current-layer="layer1"><sodipodi:guide
       position="173.5308,165.41599"
       orientation="1,0"
       id="guide10283"
       inkscape:locked="false" /></sodipodi:namedview><defs
     id="defs2" /><g
     inkscape:label="Capa 1"
     inkscape:groupmode="layer"
     id="layer1"><rect
       style="fill:#ffffff;fill-opacity:1;stroke:#372727;stroke-width:0.4;stroke-linecap:round;stroke-linejoin:round;stroke-dasharray:none;stroke-opacity:1;paint-order:stroke fill markers"
       id="rect4998"
       width="49.082024"
       height="61.262966"
       x="36.721958"
       y="126.19813" /><rect
       style="fill:#ffffff;fill-opacity:1;stroke:#372727;stroke-width:0.4;stroke-linecap:round;stroke-linejoin:round;stroke-dasharray:none;stroke-opacity:1;paint-order:stroke fill markers"
       id="rect4998-7"
       width="49.082024"
       height="61.262966"
       x="141.87697"
       y="126.38276" /><rect
       style="fill:#ffffff;fill-opacity:1;stroke:#372727;stroke-width:0.4;stroke-linecap:round;stroke-linejoin:round;stroke-dasharray:none;stroke-opacity:1;paint-order:stroke fill markers"
       id="rect4998-9"
       width="49.082024"
       height="61.262966"
       x="89.924011"
       y="126.19813" /><path
       style="fill:none;fill-opacity:1;stroke:#2f2f2f;stroke-width:1.17942;stroke-linecap:round;stroke-linejoin:round;stroke-dasharray:none;stroke-opacity:1;paint-order:stroke fill markers"
       d="m 167.99341,160.98058 h 5.53707 c 18.74644,0 18.74644,-28.80947 0,-28.80947 v 0 l -5.15641,-2.1e-4"
       id="path4944"
       sodipodi:nodetypes="ccccc" /><path
       id="path7464"
       style="fill:#ff428d;stroke-width:3.78654;stroke-linecap:round;stroke-linejoin:round;paint-order:stroke fill markers"
       d="m 167.99341,171.25273 a 11.200554,11.200554 0 0 1 -11.20055,11.20055 11.200554,11.200554 0 0 1 -11.20056,-11.20055 11.200554,11.200554 0 0 1 11.20056,-11.20056 11.200554,11.200554 0 0 1 11.20055,11.20056 z" /><path
       id="path2986"
       style="fill:#3947ff;fill-opacity:1;stroke:none;stroke-width:0.4;stroke-linecap:round;stroke-linejoin:round;stroke-dasharray:none;stroke-opacity:0;paint-order:stroke fill markers"
       d="m 167.99349,131.58401 c -5.82176,-0.0111 -11.24116,4.90921 -11.24118,11.08925 v 39.77121 c 6.19182,0.0101 11.23136,-5.01473 11.23136,-11.19174 l 0.01,-9.69174 v -11.23135 -7.51427 c 0,-7.16526 2.76859,-11.23136 5.53713,-11.23136 z m 15.11225,23.58668 c -0.0125,0.0252 -0.0251,0.0503 -0.0377,0.0754 0.0126,-0.0252 0.0253,-0.0502 0.0377,-0.0754 z m -0.25631,0.49402 c -0.0521,0.0964 -0.10512,0.19205 -0.15917,0.28681 0.0539,-0.0949 0.10715,-0.19024 0.15917,-0.28681 z m -0.26459,0.46871 c -0.0878,0.14886 -0.17763,0.29585 -0.27026,0.44028 0.0925,-0.14461 0.18263,-0.29122 0.27026,-0.44028 z m -0.31471,0.50953 c -1.73648,2.67153 -4.30188,4.54914 -7.69307,4.86947 3.39989,-0.31954 5.962,-2.19844 7.69307,-4.86947 z"
       sodipodi:nodetypes="ccccccscccccccccccccc" /><rect
       style="fill:#3947ff;fill-opacity:1;stroke:none;stroke-width:0.4;stroke-linecap:round;stroke-linejoin:round;stroke-dasharray:none;stroke-opacity:1;paint-order:stroke fill markers"
       id="rect1234"
       width="7.0756936"
       height="7.2548251"
       x="14.957479"
       y="149.84349" /><rect
       style="fill:#ff428d;fill-opacity:1;stroke:none;stroke-width:0.4;stroke-linecap:round;stroke-linejoin:round;stroke-dasharray:none;stroke-opacity:1;paint-order:stroke fill markers"
       id="rect1234-7"
       width="7.0756936"
       height="7.2548251"
       x="14.957479"
       y="157.09831" /><circle
       style="fill:#ff428d;fill-opacity:1;stroke:none;stroke-width:1.03632;stroke-linecap:round;stroke-linejoin:round;stroke-dasharray:none;stroke-opacity:1;paint-order:stroke fill markers"
       id="path8466"
       cx="103.33813"
       cy="172.74916"
       r="3.0668643" /><circle
       style="fill:#ff428d;fill-opacity:1;stroke:none;stroke-width:1.03632;stroke-linecap:round;stroke-linejoin:round;stroke-dasharray:none;stroke-opacity:1;paint-order:stroke fill markers"
       id="path8466-7"
       cx="113.77255"
       cy="172.86693"
       r="3.0668643" /><circle
       style="fill:#ff428d;fill-opacity:1;stroke:none;stroke-width:2.54957;stroke-linecap:round;stroke-linejoin:round;stroke-dasharray:none;stroke-opacity:1;paint-order:stroke fill markers"
       id="path8466-7-1"
       cx="63.988461"
       cy="149.08806"
       r="7.5451512" /><path
       style="fill:none;fill-opacity:1;stroke:#ff428d;stroke-width:6;stroke-linecap:round;stroke-linejoin:round;stroke-dasharray:none;stroke-opacity:1;paint-order:stroke fill markers"
       d="M 103.33815,172.74916 V 154.63525"
       id="path8635" /><path
       style="fill:none;fill-opacity:1;stroke:#3947ff;stroke-width:6;stroke-linecap:round;stroke-linejoin:round;stroke-dasharray:none;stroke-opacity:1;paint-order:stroke fill markers"
       d="m 103.33815,163.81575 h 16.03227 c 5.12837,-1e-5 9.31484,-4.12275 9.31484,-9.04614 0,-5.20981 -4.18648,-9.31485 -9.31484,-9.31485 h -16.1197"
       id="path8490"
       sodipodi:nodetypes="ccccc" /><path
       id="path9950"
       style="color:#000000;fill:#3947ff;fill-opacity:1;stroke-linecap:round;stroke-linejoin:round;-inkscape-stroke:none;paint-order:stroke fill markers"
       d="m 63.98846,133.6368 c -8.256563,0 -15.102453,6.64241 -15.437301,14.82391 h -0.01395 v 0.62735 31.8456 h 5.627047 v -31.8456 -5.2e-4 a 9.8251063,9.8251063 0 0 1 9.82524,-9.82524 9.8251063,9.8251063 0 0 1 9.824727,9.82524 9.8251063,9.8251063 0 0 1 -9.824727,9.82524 9.8251063,9.8251063 0 0 1 -7.325134,-3.283 v 7.03729 c 2.185732,1.1924 4.682821,1.87224 7.324101,1.87224 8.46672,-1e-5 15.45124,-6.98453 15.45125,-15.45125 0,-8.46672 -6.98452,-15.45125 -15.45125,-15.45126 z" /></g></svg>
